# xmcd
#
# Track frame offsets:
#	150
#	14565
#	29485
#	40300
#	53482
#	68870
#	80095
#	96912
#	112192
#	124775
#	139542
#	154507
#	170035
#	190660
#	203835
#
# Disc length: 2921 seconds
#
# Revision: 0
# Processed by: cddbd v1.4PL0 Copyright (c) Steve Scherf et al.
# Submitted via: EasyCDDAExtractor 4.6.9.1
#
DISCID=d00b670f
DTITLE=ажемтоука яафекг - стгм жытиа ма яивмеис леки
DYEAR=2002
DGENRE=каийа
TTITLE0=х' амадухы
TTITLE1=лг ле невмас
TTITLE2=евы тгм ацапг соу
TTITLE3=ас ебяисйа емам амхяыпо 
TTITLE4=ежуцес
TTITLE5=йаи то бяаду оуфайи
TTITLE6=жусаеи апоье
TTITLE7=ле цуяифеис
TTITLE8=сам тгм дийг соу тгм йаядиа
TTITLE9=выяис том немодово
TTITLE10=то пеяекхом хулгхгйа
TTITLE11=пыс ма леимы
TTITLE12=стасоу сто 16
TTITLE13=лийяг лпакамта
TTITLE14=ежуцес ( оявгстяа )
EXTD=
EXTT0=
EXTT1=
EXTT2=
EXTT3=
EXTT4=
EXTT5=
EXTT6=
EXTT7=
EXTT8=
EXTT9=
EXTT10=
EXTT11=
EXTT12=
EXTT13=
EXTT14=
PLAYORDER=
